<?xml version="1.0" standalone="no"?><!DOCTYPE svg PUBLIC "-//W3C//DTD SVG 1.1//EN" "http://www.w3.org/Graphics/SVG/1.1/DTD/svg11.dtd"><svg t="1699150350470" class="icon" viewBox="0 0 1024 1024" version="1.1" xmlns="http://www.w3.org/2000/svg" p-id="11616" xmlns:xlink="http://www.w3.org/1999/xlink" width="200" height="200"><path d="M888.6 697.8H150.9V246.2c0-17.6 14.4-32 32-32h673.6c17.6 0 32 14.4 32 32l0.1 451.6z m-687.7-40h637.6c5.5 0 10-4.5 10-10V264.2c0-5.5-4.5-10-10-10H200.9c-5.5 0-10 4.5-10 10v383.6c0 5.5 4.5 10 10 10z" fill="#4C6070" p-id="11617"></path><path d="M867.2 701c-1-2-3.1-3.2-5.3-3.2h-680c-4.8 0-9.3 2.7-11.5 7l-29 55.6c-3.5 6.7 1.4 14.6 8.9 14.6h739c7.5 0 12.3-8 8.9-14.6l-31-59.4z" fill="#FFBD5C" p-id="11618"></path><path d="M941.4 756.7l-0.4-0.7-53.2-98c-0.1-0.1-0.2-0.2-0.4-0.2H152.1c-0.2 0-0.3 0.1-0.4 0.2l-53.2 98-0.4 0.7c-6.2 12-5.9 26 0.6 37.7 7.2 12.9 21.1 20.6 35.9 20.6h771.2c14.1 0 26.8-7.2 34.1-19.2 7.4-12 7.9-26.6 1.5-39.1zM889.2 775h-739c-7.5 0-12.3-8-8.9-14.6l29-55.6c2.2-4.3 6.7-7 11.5-7h679.9c2.2 0 4.3 1.2 5.3 3.2l30.9 59.4c3.7 6.6-1.2 14.6-8.7 14.6z" fill="#4C6070" p-id="11619"></path><path d="M644.4 788H395.1c-5.8-1-10.6-5.7-10.6-11.6v-14.8c0-5.8 4.7-10.6 10.6-10.6h249.2c5.8 0 10.6 4.7 10.6 10.6v14.8c0 5.9-4.7 10.6-10.5 11.6z" fill="#4C6070" p-id="11620"></path><path d="M365.2 353c-49 9.5-85.3 53.1-84.6 104.2 0.4 27.2 11.3 52.9 30.7 72.3s45.1 30.3 72.3 30.7c51.1 0.7 94.7-35.6 104.2-84.6H365.2V353z" fill="#FFBD5C" p-id="11621"></path><path d="M521.7 445c-5.5-5.9-13.2-9.3-21.3-9.3h-95.2v-95.2c0-8-3.4-15.8-9.3-21.3s-14-8.3-22-7.6c-75.8 5.9-134.3 70.1-133.3 146.2 0.5 37.7 15.6 73.2 42.4 100.1 26.8 26.8 62.4 41.9 100.1 42.4h2c75.2 0 138.3-58.2 144.2-133.3 0.6-8.1-2.2-16.1-7.6-22zM375.4 331.5z m8.3 228.7c-27.2-0.4-52.9-11.3-72.3-30.7s-30.3-45.1-30.7-72.3c-0.7-51 35.6-94.7 84.6-104.2v122.7H488c-9.6 48.9-53.2 85.3-104.3 84.5zM606.1 383.6c-11 0-19.9-8.8-20-19.8s8.8-20.1 19.8-20.2l166.5-1.5h0.2c11 0 19.9 8.8 20 19.8s-8.8 20.1-19.8 20.2l-166.5 1.5h-0.2zM606.1 473.9c-11 0-19.9-8.8-20-19.8s8.8-20.1 19.8-20.2l166.5-1.5h0.2c11 0 19.9 8.8 20 19.8s-8.8 20.1-19.8 20.2l-166.5 1.5h-0.2zM606.1 564.2c-11 0-19.9-8.8-20-19.8s8.8-20.1 19.8-20.2l166.5-1.5h0.2c11 0 19.9 8.8 20 19.8s-8.8 20.1-19.8 20.2l-166.5 1.5h-0.2z" fill="#4C6070" p-id="11622"></path></svg>